#N canvas 30 36 356 547 10;
#X msg 49 72 0;
#X obj 49 96 pack 1 2;
#X obj 78 132 line~;
#X obj 78 156 *~;
#X obj 78 178 *~;
#X obj 30 206 *~ 100;
#X obj 30 228 +~ 20;
#X obj 30 250 osc~;
#X obj 63 273 *~;
#X msg 125 227 0;
#X obj 74 13 t b b l b;
#X obj 49 46 del 2;
#X msg 91 46 1 2;
#X msg 74 -10 500 65;
#X obj 63 295 *~ 0.5;
#X msg 236 46 \$1 20;
#X obj 236 67 line~;
#X obj 238 -63 vsl 15 100 0 0.9 0 0 empty empty volume 0 -9 0 10 -257985
-1 -1 7800 1;
#X obj 221 352 *~;
#X floatatom 281 47 5 0 0 0 - - -;
#X obj 74 -66 bng 15 250 50 0 empty empty empty 17 7 0 10 -258113 -1
-1;
#X obj 221 400 clip~ -1 1;
#X obj 221 377 hip~ 4;
#X obj 221 400 clip~ -1 1;
#X obj 221 377 hip~ 4;
#X obj 221 427 dac~;
#X obj 143 47 unpack 1 2;
#X connect 0 0 1 0;
#X connect 1 0 2 0;
#X connect 2 0 3 0;
#X connect 2 0 3 1;
#X connect 3 0 4 0;
#X connect 3 0 4 1;
#X connect 4 0 5 0;
#X connect 4 0 8 1;
#X connect 5 0 6 0;
#X connect 6 0 7 0;
#X connect 7 0 8 0;
#X connect 8 0 14 0;
#X connect 9 0 7 1;
#X connect 10 0 11 0;
#X connect 10 1 12 0;
#X connect 10 2 26 0;
#X connect 10 3 9 0;
#X connect 11 0 0 0;
#X connect 12 0 2 0;
#X connect 13 0 10 0;
#X connect 14 0 18 0;
#X connect 15 0 16 0;
#X connect 16 0 18 1;
#X connect 17 0 15 0;
#X connect 17 0 19 0;
#X connect 18 0 22 0;
#X connect 20 0 13 0;
#X connect 21 0 25 0;
#X connect 21 0 25 1;
#X connect 22 0 21 0;
#X connect 24 0 23 0;
#X connect 26 0 1 1;
#X connect 26 1 5 1;
