#N canvas 223 224 662 246 10;
#X obj 78 -70 vsl 15 100 0 0.9 0 0 empty empty cassa_volume 0 -9 0
10 -257985 -1 -1 0 1;
#X obj 33 18 bng 15 250 50 0 empty empty empty 17 7 0 10 -258113 -1
-1;
#X obj 464 76 clip~ -1 1;
#X obj 464 53 hip~ 4;
#X obj 464 76 clip~ -1 1;
#X obj 464 53 hip~ 4;
#X obj 464 103 dac~;
#N canvas 177 163 468 525 cassa 0;
#X msg 43 110 0;
#X obj 43 134 pack 1 2;
#X obj 72 170 line~;
#X obj 72 194 *~;
#X obj 72 216 *~;
#X obj 24 244 *~ 100;
#X obj 24 266 +~ 20;
#X obj 24 288 osc~;
#X obj 57 311 *~;
#X msg 119 265 0;
#X obj 68 51 t b b l b;
#X obj 43 84 del 2;
#X msg 85 84 1 2;
#X msg 68 28 500 65;
#X obj 57 333 *~ 0.5;
#X msg 230 84 \$1 20;
#X obj 230 105 line~;
#X obj 215 390 *~;
#X floatatom 275 85 5 0 0 0 - - -;
#X obj 137 85 unpack 1 2;
#X obj 215 418 throw~ out;
#X obj 68 0 inlet bang;
#X obj 230 -1 inlet volume;
#X connect 0 0 1 0;
#X connect 1 0 2 0;
#X connect 2 0 3 0;
#X connect 2 0 3 1;
#X connect 3 0 4 0;
#X connect 3 0 4 1;
#X connect 4 0 5 0;
#X connect 4 0 8 1;
#X connect 5 0 6 0;
#X connect 6 0 7 0;
#X connect 7 0 8 0;
#X connect 8 0 14 0;
#X connect 9 0 7 1;
#X connect 10 0 11 0;
#X connect 10 1 12 0;
#X connect 10 2 19 0;
#X connect 10 3 9 0;
#X connect 11 0 0 0;
#X connect 12 0 2 0;
#X connect 13 0 10 0;
#X connect 14 0 17 0;
#X connect 15 0 16 0;
#X connect 16 0 17 1;
#X connect 17 0 20 0;
#X connect 19 0 1 1;
#X connect 19 1 5 1;
#X connect 21 0 13 0;
#X connect 22 0 15 0;
#X restore 33 45 pd cassa;
#N canvas 491 279 349 313 hihat 0;
#X obj 108 71 noise~;
#X obj 45 95 line~;
#X obj 45 124 *~;
#X obj 108 114 bp~ 8000 4;
#X obj 108 136 *~ 1;
#X obj 45 173 *~;
#X msg 209 148 \$1 20;
#X obj 209 172 line~;
#X obj 45 241 *~;
#X floatatom 255 148 5 0 0 0 - - -;
#X msg 45 70 1 \, 0 70;
#X obj 46 13 inlet bang;
#X obj 209 8 inlet volume;
#X obj 45 274 throw~ out;
#X connect 0 0 3 0;
#X connect 1 0 2 1;
#X connect 1 0 2 0;
#X connect 2 0 5 0;
#X connect 3 0 4 0;
#X connect 4 0 5 1;
#X connect 5 0 8 0;
#X connect 6 0 7 0;
#X connect 7 0 8 1;
#X connect 8 0 13 0;
#X connect 10 0 1 0;
#X connect 11 0 10 0;
#X connect 12 0 6 0;
#X connect 12 0 9 0;
#X restore 323 49 pd hihat;
#X obj 368 -69 vsl 15 100 0 0.9 0 0 empty empty hihat_volume 0 -9 0
10 -257985 -1 -1 0 1;
#X obj 323 19 bng 15 250 50 0 empty empty empty 17 7 0 10 -258113 -1
-1;
#X obj 464 -62 catch~ out;
#X obj 557 -60 vsl 15 100 0 0.9 0 0 empty empty master_volume 0 -9
0 10 -257985 -1 -1 0 1;
#X obj 464 28 *~;
#N canvas 321 223 800 477 rullante 0;
#X obj 73 -95 noise~;
#X obj 25 5 *~;
#X obj 25 -43 *~;
#X obj 25 -95 vline~;
#X msg 25 -123 0 \, 1 0.5 0 \, 0 200 1;
#X obj 73 -53 bp~ 3000 8;
#X obj 73 -29 *~ 6;
#N canvas 687 355 313 300 delay_1 0;
#X obj -146 220 outlet~;
#X obj -146 119 vd~ \$0_dly_rullo;
#X obj -146 171 *~ 0.5;
#X obj -146 149 lop~ 4500 1;
#X obj -335 7 inlet~ signal;
#X obj -146 7 inlet~ delay_time;
#X obj -335 39 delwrite~ \$0_dly_rullo 3000;
#X connect 1 0 3 0;
#X connect 2 0 0 0;
#X connect 2 0 6 0;
#X connect 3 0 2 0;
#X connect 4 0 6 0;
#X connect 5 0 1 0;
#X restore 390 73 pd delay_1;
#X msg 601 8 \$1 20;
#X obj 601 32 line~;
#X obj 601 -112 vsl 15 100 0 0.9 0 0 empty empty delay_volume 0 -9
0 10 -232576 -1 -1 0 1;
#X floatatom 647 7 5 0 0 0 - - -;
#X obj 390 172 *~;
#X obj 390 95 *~ 1;
#X msg 462 9 \$1 20;
#X obj 462 33 line~;
#X obj 462 -117 vsl 15 100 0 1000 0 0 empty empty delay_time(ms) 0
-9 0 10 -232576 -1 -1 0 1;
#X floatatom 508 8 5 0 0 0 - - -;
#X obj 25 256 throw~ out;
#X obj 25 -164 inlet bang;
#X obj 156 -165 inlet volume;
#X obj 25 173 *~;
#X obj 602 -160 inlet dly_volume;
#X connect 0 0 5 0;
#X connect 1 0 7 0;
#X connect 1 0 21 0;
#X connect 2 0 1 0;
#X connect 3 0 2 1;
#X connect 3 0 2 0;
#X connect 4 0 3 0;
#X connect 5 0 6 0;
#X connect 6 0 1 1;
#X connect 7 0 13 0;
#X connect 8 0 9 0;
#X connect 9 0 12 1;
#X connect 10 0 8 0;
#X connect 10 0 11 0;
#X connect 12 0 18 0;
#X connect 13 0 12 0;
#X connect 14 0 15 0;
#X connect 15 0 7 1;
#X connect 16 0 14 0;
#X connect 16 0 17 0;
#X connect 19 0 4 0;
#X connect 20 0 21 1;
#X connect 21 0 18 0;
#X connect 22 0 10 0;
#X restore 134 45 pd rullante;
#X obj 264 -69 vsl 15 100 0 0.9 0 0 empty empty delay_volume 0 -9 0
10 -232576 -1 -1 0 1;
#X obj 165 -70 vsl 15 100 0 0.9 0 0 empty empty rullante_volume 0 -9
0 10 -257985 -1 -1 0 1;
#X obj 134 19 bng 15 250 50 0 empty empty empty 17 7 0 10 -258113 -1
-1;
#X obj 135 84 key;
#X floatatom 135 105 5 0 0 0 - - -;
#X obj 135 124 select 113 119 101;
#X connect 0 0 7 1;
#X connect 1 0 7 0;
#X connect 2 0 6 0;
#X connect 2 0 6 1;
#X connect 3 0 2 0;
#X connect 5 0 4 0;
#X connect 9 0 8 1;
#X connect 10 0 8 0;
#X connect 11 0 13 0;
#X connect 12 0 13 1;
#X connect 13 0 3 0;
#X connect 15 0 14 2;
#X connect 16 0 14 1;
#X connect 17 0 14 0;
#X connect 18 0 19 0;
#X connect 19 0 20 0;
#X connect 20 0 1 0;
#X connect 20 1 17 0;
#X connect 20 2 10 0;
