#N canvas 559 53 513 455 10;
#X obj 108 71 noise~;
#X obj 45 35 bng 15 250 50 0 empty empty empty 17 7 0 10 -258113 -1
-1;
#X obj 45 95 line~;
#X text 66 34 Hi Hat;
#X obj 45 124 *~;
#X obj 108 114 bp~ 8000 4;
#X obj 108 136 *~ 1;
#X obj 45 173 *~;
#X msg 209 148 \$1 20;
#X obj 209 172 line~;
#X obj 209 37 vsl 15 100 0 0.9 0 0 empty empty volume 0 -9 0 10 -257985
-1 -1 0 1;
#X obj 45 241 *~;
#X floatatom 255 148 5 0 0 0 - - -;
#X msg 45 70 1 \, 0 70;
#X obj 45 288 clip~ -1 1;
#X obj 45 265 hip~ 4;
#X obj 45 288 clip~ -1 1;
#X obj 45 265 hip~ 4;
#X obj 45 315 dac~;
#X connect 0 0 5 0;
#X connect 1 0 13 0;
#X connect 2 0 4 1;
#X connect 2 0 4 0;
#X connect 4 0 7 0;
#X connect 5 0 6 0;
#X connect 6 0 7 1;
#X connect 7 0 11 0;
#X connect 8 0 9 0;
#X connect 9 0 11 1;
#X connect 10 0 8 0;
#X connect 10 0 12 0;
#X connect 11 0 15 0;
#X connect 13 0 2 0;
#X connect 14 0 18 0;
#X connect 14 0 18 1;
#X connect 15 0 14 0;
#X connect 17 0 16 0;
