#N canvas 182 97 467 472 10;
#X obj 90 -124 noise~;
#X obj 25 -175 bng 15 250 50 0 empty empty empty 17 7 0 10 -258113
-1 -1;
#X obj 25 -26 *~;
#X obj 25 -74 *~;
#X obj 25 -126 vline~;
#X msg 25 -154 0 \, 1 0.5 0 \, 0 200 1;
#X obj 90 -82 bp~ 3000 8;
#X obj 90 -58 *~ 6;
#N canvas 687 355 313 300 delay_1 0;
#X obj -146 220 outlet~;
#X obj -146 119 vd~ \$0_dly_rullo;
#X obj -146 171 *~ 0.5;
#X obj -146 149 lop~ 4500 1;
#X obj -335 7 inlet~ signal;
#X obj -146 7 inlet~ delay_time;
#X obj -335 39 delwrite~ \$0_dly_rullo 3000;
#X connect 1 0 3 0;
#X connect 2 0 0 0;
#X connect 2 0 6 0;
#X connect 3 0 2 0;
#X connect 4 0 6 0;
#X connect 5 0 1 0;
#X restore 70 42 pd delay_1;
#X obj 25 225 throw~ mono;
#X msg 191 207 \$1 20;
#X obj 191 231 line~;
#X obj 191 96 vsl 15 100 0 0.9 0 0 empty empty delay_volume 0 -9 0
10 -232576 -1 -1 2800 1;
#X floatatom 237 206 5 0 0 0 - - -;
#X obj 70 191 *~;
#X msg 368 52 \$1 20;
#X obj 368 73 line~;
#X obj 370 -57 vsl 15 100 0 0.9 0 0 empty empty volume 0 -9 0 10 -257985
-1 -1 9900 1;
#X obj 353 142 *~;
#X floatatom 413 53 5 0 0 0 - - -;
#X obj 353 190 clip~ -1 1;
#X obj 353 167 hip~ 4;
#X obj 353 190 clip~ -1 1;
#X obj 353 167 hip~ 4;
#X obj 353 217 dac~;
#X obj 353 -118 catch~ mono;
#X obj 70 64 *~ 1;
#X msg 192 -22 \$1 20;
#X obj 192 2 line~;
#X obj 192 -142 vsl 15 100 0 1000 0 0 empty empty delay_time(ms) 0
-9 0 10 -232576 -1 -1 5800 1;
#X floatatom 238 -23 5 0 0 0 - - -;
#X text 45 -178 rullante;
#X connect 0 0 6 0;
#X connect 1 0 5 0;
#X connect 2 0 9 0;
#X connect 2 0 8 0;
#X connect 3 0 2 0;
#X connect 4 0 3 1;
#X connect 4 0 3 0;
#X connect 5 0 4 0;
#X connect 6 0 7 0;
#X connect 7 0 2 1;
#X connect 8 0 26 0;
#X connect 10 0 11 0;
#X connect 11 0 14 1;
#X connect 12 0 10 0;
#X connect 12 0 13 0;
#X connect 14 0 9 0;
#X connect 15 0 16 0;
#X connect 16 0 18 1;
#X connect 17 0 15 0;
#X connect 17 0 19 0;
#X connect 18 0 21 0;
#X connect 20 0 24 0;
#X connect 20 0 24 1;
#X connect 21 0 20 0;
#X connect 23 0 22 0;
#X connect 25 0 18 0;
#X connect 26 0 14 0;
#X connect 27 0 28 0;
#X connect 28 0 8 1;
#X connect 29 0 27 0;
#X connect 29 0 30 0;
